<?xml version="1.0" encoding="UTF-8"?>
<svg xmlns="http://www.w3.org/2000/svg" viewBox="0 0 32 32" width="32" height="32">
  <defs>
    <linearGradient id="spwig-grad" x1="0%" y1="0%" x2="100%" y2="100%">
      <stop offset="0%" stop-color="#1178f4"/>
      <stop offset="100%" stop-color="#f411c7" stop-opacity="0.84"/>
    </linearGradient>
  </defs>
  <!-- Background rounded square -->
  <rect width="32" height="32" rx="6" fill="url(#spwig-grad)"/>
  <!-- Spwig leaf silhouette (simplified, centered, white, semi-transparent) -->
  <g transform="translate(4.5, 3) scale(0.94)" opacity="0.18">
    <path d="M14.2 25.5c-0.2-0.2-0.2-0.6-0.4-3.9-0.1-3.9-0.3-4.8-1.3-6.1-0.6-0.8-1.4-1.3-3.1-1.9-1.6-0.6-3.7-1.5-4.5-2.1-1.3-0.9-2.7-2.5-3.4-3.9C0.8 6.1 0.2 4.2 0 2.7L0 2.2l1.3 0.1c2.7 0.1 4.6 0.6 6.3 1.4 2.4 1.2 3.9 2.8 4.9 5.1 0.8 1.8 1 2.9 1.2 5.6 0.1 1.9 0.2 2.2 0.5 2.2 0.2 0 0.3-0.4 0.9-3.7 0.7-4.3 1.1-5.5 2.2-7.1 1.7-2.5 4.7-4.3 8.3-5 0.7-0.1 3.6-0.4 5-0.4l0.2 0-0.2 1.3c-0.7 3.5-1.6 5.6-3.2 7.6-1.2 1.5-3.3 2.9-5.6 3.8-0.8 0.3-3.6 1.1-3.8 1.1-0.1 0-0.1-0.1 0.1-0.4 0.7-1.2 1.5-2.3 2.6-3.6 2.4-2.9 2.4-3 1.9-3-0.4 0-1.3 0.8-2.8 2.3-1.9 1.9-4.1 5-4.1 5.7 0 0.4 0.1 0.2 1.1-1.1 1-1.4 2.5-3.3 2.6-3.2 0 0-0.3 0.5-0.7 1.1-1.3 1.9-2.5 4.2-3 5.8-0.4 1.3-0.5 2-0.7 4.7-0.2 2.7-0.2 3-0.5 3.1-0.1 0-0.3 0-0.4-0.1z" fill="white"/>
  </g>
  <!-- Translation symbol: "A" on left -->
  <text x="7.5" y="19" font-family="Arial, Helvetica, sans-serif" font-weight="bold" font-size="11" fill="white" text-anchor="middle">A</text>
  <!-- Arrow -->
  <path d="M13 15.5 L19 15.5 M17 13 L19.5 15.5 L17 18" stroke="white" stroke-width="1.5" stroke-linecap="round" stroke-linejoin="round" fill="none"/>
  <!-- CJK character on right -->
  <text x="25" y="19.5" font-family="Arial, Helvetica, sans-serif" font-weight="bold" font-size="10" fill="white" text-anchor="middle">&#25991;</text>
</svg>
