<svg xmlns="http://www.w3.org/2000/svg" viewBox="0 0 100 100" width="100" height="100">
  <circle cx="50" cy="50" r="50" fill="#25D366"/>
  <path fill="white" d="M50 15c-19.33 0-35 15.67-35 35 0 6.17 1.58 12 4.42 17.08L15 85l18.67-4.92C38.5 82.58 44.08 84 50 84c19.33 0 35-15.67 35-35S69.33 15 50 15zm0 63.33c-5.5 0-10.67-1.42-15.25-4l-1.08-.67-11.25 2.92 3-10.92-.75-1.17c-2.83-4.58-4.33-9.92-4.33-15.5 0-15.58 12.75-28.33 28.42-28.33S78.33 33.42 78.33 49 65.58 78.33 50 78.33zm15.58-21.25c-.83-.42-5.08-2.5-5.83-2.75-.83-.33-1.42-.5-2 .42-.58.92-2.25 2.75-2.75 3.33-.5.58-1 .67-1.83.25-5-2.5-8.33-4.5-11.67-10.17-.83-1.5.83-1.42 2.42-4.67.25-.58.17-1.08-.08-1.5-.25-.42-2-4.92-2.75-6.75-.75-1.75-1.5-1.5-2-.5-.5.08-1.08.08-1.67.08s-1.5.25-2.33 1.17c-.83.92-3.08 3-3.08 7.33s3.17 8.5 3.58 9.08c.42.58 6.25 9.5 15.08 13.33 5.67 2.42 7.83 2.58 10.67 2.17 1.75-.25 5.08-2.08 5.83-4.08.75-2 .75-3.75.5-4.08-.17-.42-.75-.67-1.58-1.08z"/>
</svg>
