<svg xmlns="http://www.w3.org/2000/svg" viewBox="0 0 128 128" width="128" height="128">
  <defs>
    <linearGradient id="bg" x1="0" y1="0" x2="1" y2="1">
      <stop offset="0%" stop-color="#FFFBEB"/>
      <stop offset="100%" stop-color="#FEF3C7"/>
    </linearGradient>
    <linearGradient id="leaf" x1="0" y1="0" x2="1" y2="1">
      <stop offset="0%" stop-color="#1178f4" stop-opacity="0.08"/>
      <stop offset="100%" stop-color="#f411c7" stop-opacity="0.06"/>
    </linearGradient>
  </defs>
  <rect width="128" height="128" rx="20" fill="url(#bg)"/>
  <g transform="translate(82,86) scale(2.8)" opacity="0.5">
    <path d="m5.66,9.94c-.08-.1-.09-.24-.14-1.56-.06-1.56-.13-1.9-.52-2.42-.24-.31-.57-.52-1.25-.76-.65-.23-1.47-.61-1.79-.83-.51-.35-1.08-1.01-1.36-1.56-.29-.58-.52-1.33-.58-1.91l-.02-.19.53.03c1.09.05 1.83.22 2.52.57.94.47 1.55 1.12 1.96 2.05.31.71.4 1.15.47 2.21.05.74.08.9.19.9.09 0 .13-.17.35-1.46.3-1.7.45-2.2.88-2.84.67-.98 1.86-1.7 3.29-2 .27-.06 1.45-.14 2.01-.15l.09,0-.1.52c-.26 1.37-.62 2.22-1.26 3.01-.49.6-1.33 1.17-2.24 1.51-.33.12-1.42.45-1.51.45-.05 0-.04-.04.04-.16.29-.48.61-.92 1.04-1.45.95-1.16.97-1.17.77-1.17-.14 0-.53.31-1.13.92-.75.76-1.65 1.99-1.65 2.26 0,.14.05.09.43-.45.4-.57 1-.13 1.03-1.28.01.01-.11.2-.26.43-.53.77-1 1.67-1.2 2.3-.16.51-.2.78-.27 1.88-.07 1.08-.08 1.19-.2 1.21-.05.01-.11-.01-.14-.05z" fill="url(#leaf)"/>
  </g>
  <!-- Globe outline -->
  <circle cx="52" cy="58" r="28" fill="none" stroke="#D97706" stroke-width="2.5"/>
  <!-- Globe latitude lines -->
  <ellipse cx="52" cy="58" rx="28" ry="12" fill="none" stroke="#D97706" stroke-width="1.5" opacity="0.5"/>
  <ellipse cx="52" cy="58" rx="12" ry="28" fill="none" stroke="#D97706" stroke-width="1.5" opacity="0.5"/>
  <line x1="24" y1="58" x2="80" y2="58" stroke="#D97706" stroke-width="1.5" opacity="0.5"/>
  <!-- "A" character -->
  <text x="48" y="66" text-anchor="middle" font-family="Arial, sans-serif" font-size="22" font-weight="700" fill="#D97706">A</text>
  <!-- Arrow -->
  <g stroke="#F59E0B" stroke-width="2.5" fill="none" stroke-linecap="round" stroke-linejoin="round">
    <line x1="82" y1="58" x2="96" y2="58"/>
    <polyline points="91,53 96,58 91,63"/>
  </g>
  <!-- Target language character -->
  <text x="100" y="50" text-anchor="middle" font-family="Arial, sans-serif" font-size="16" font-weight="600" fill="#D97706" opacity="0.7">文</text>
</svg>
