<svg xmlns="http://www.w3.org/2000/svg" viewBox="0 0 128 128" width="128" height="128">
  <defs>
    <linearGradient id="bg" x1="0" y1="0" x2="1" y2="1">
      <stop offset="0%" stop-color="#ECFDF5"/>
      <stop offset="100%" stop-color="#D1FAE5"/>
    </linearGradient>
    <linearGradient id="leaf" x1="0" y1="0" x2="1" y2="1">
      <stop offset="0%" stop-color="#1178f4" stop-opacity="0.08"/>
      <stop offset="100%" stop-color="#f411c7" stop-opacity="0.06"/>
    </linearGradient>
    <filter id="shadow-blur">
      <feGaussianBlur in="SourceGraphic" stdDeviation="4"/>
    </filter>
  </defs>
  <rect width="128" height="128" rx="20" fill="url(#bg)"/>
  <g transform="translate(82,86) scale(2.8)" opacity="0.5">
    <path d="m5.66,9.94c-.08-.1-.09-.24-.14-1.56-.06-1.56-.13-1.9-.52-2.42-.24-.31-.57-.52-1.25-.76-.65-.23-1.47-.61-1.79-.83-.51-.35-1.08-1.01-1.36-1.56-.29-.58-.52-1.33-.58-1.91l-.02-.19.53.03c1.09.05 1.83.22 2.52.57.94.47 1.55 1.12 1.96 2.05.31.71.4 1.15.47 2.21.05.74.08.9.19.9.09 0 .13-.17.35-1.46.3-1.7.45-2.2.88-2.84.67-.98 1.86-1.7 3.29-2 .27-.06 1.45-.14 2.01-.15l.09,0-.1.52c-.26 1.37-.62 2.22-1.26 3.01-.49.6-1.33 1.17-2.24 1.51-.33.12-1.42.45-1.51.45-.05 0-.04-.04.04-.16.29-.48.61-.92 1.04-1.45.95-1.16.97-1.17.77-1.17-.14 0-.53.31-1.13.92-.75.76-1.65 1.99-1.65 2.26 0,.14.05.09.43-.45.4-.57 1-.13 1.03-1.28.01.01-.11.2-.26.43-.53.77-1 1.67-1.2 2.3-.16.51-.2.78-.27 1.88-.07 1.08-.08 1.19-.2 1.21-.05.01-.11-.01-.14-.05z" fill="url(#leaf)"/>
  </g>
  <!-- Shadow (offset behind) -->
  <rect x="42" y="42" width="52" height="52" rx="8" fill="#047857" opacity="0.15" filter="url(#shadow-blur)"/>
  <!-- Main elevated card -->
  <rect x="32" y="32" width="52" height="52" rx="8" fill="white" stroke="#059669" stroke-width="2"/>
  <!-- Shadow depth lines -->
  <g stroke="#10B981" stroke-width="1.5" opacity="0.6">
    <line x1="86" y1="46" x2="92" y2="52"/>
    <line x1="86" y1="56" x2="96" y2="66"/>
    <line x1="86" y1="66" x2="98" y2="78"/>
    <line x1="46" y1="86" x2="52" y2="92"/>
    <line x1="56" y1="86" x2="66" y2="96"/>
    <line x1="66" y1="86" x2="78" y2="98"/>
  </g>
  <!-- X/Y offset indicator -->
  <g stroke="#047857" stroke-width="2" fill="none" stroke-linecap="round">
    <line x1="58" y1="58" x2="70" y2="70"/>
    <polyline points="64,70 70,70 70,64"/>
  </g>
</svg>
